Coordinates
version=1
nRows=24
nColumns=24
inDegrees=yes

Units are S.I. units (second, meters, Newtons, ...)
Angles are in degrees.

endheader
time	pelvis_tilt	pelvis_list	pelvis_rotation	pelvis_tx	pelvis_ty	pelvis_tz	hip_flexion_r	hip_adduction_r	hip_rotation_r	knee_angle_r	ankle_angle_r	subtalar_angle_r	mtp_angle_r	hip_flexion_l	hip_adduction_l	hip_rotation_l	knee_angle_l	ankle_angle_l	subtalar_angle_l	mtp_angle_l	lumbar_extension	lumbar_bending	lumbar_rotation
      0.64600000	      0.70222064	      8.56479106	     -0.32286723	     -0.78960159	      1.04927890	      0.28113490	     22.92506727	     -4.70977326	    -12.98235155	      3.35883689	      1.51467846	      0.68294964	      0.05641070	    -21.75124820	     13.54338003	     -1.49862955	      1.60211423	      2.67519956	      1.74655928	      0.16361948	      2.67044157	     -6.58104199	     -1.61478107
      0.65016667	      0.70181768	      8.55219580	     -0.25238243	     -0.78363226	      1.04906974	      0.28114730	     22.85418598	     -4.65351497	    -12.84265637	      3.03361540	      1.54911440	      0.66620168	      0.06329991	    -21.90589645	     13.47662400	     -1.42355009	      1.23761165	      2.60423862	      1.72438700	      0.16659845	      2.72801796	     -6.52842423	     -1.63622682
      0.65433333	      0.73508915	      8.52405038	     -0.19230468	     -0.77761368	      1.04890100	      0.28113045	     22.73250735	     -4.58608637	    -12.58718918	      2.68706963	      1.67238124	      0.59073999	      0.07590155	    -22.11007870	     13.39704909	     -1.31135763	      0.90430502	      2.44702198	      1.69659225	      0.17322198	      2.78799842	     -6.42103867	     -1.68777694
      0.65850000	      0.87780772	      8.42650194	     -0.24238468	     -0.77147643	      1.04882923	      0.28130574	     22.46020182	     -4.40349950	    -12.00531658	      2.37168492	      1.90547613	     -0.04094461	      0.12912242	    -22.44066455	     13.27363790	     -1.29519670	      0.63870672	      2.04832329	      1.39845313	      0.22450451	      2.57658088	     -6.34977013	     -1.87856729
      0.66266667	      0.88224662	      8.39954653	     -0.15682996	     -0.76535329	      1.04866822	      0.28123809	     22.36439120	     -4.35079224	    -11.76707137	      1.96542506	      1.85814980	     -0.06825625	      0.13673992	    -22.59171248	     13.18703139	     -1.18851474	      0.25301013	      1.97254753	      1.41626707	      0.23417929	      2.65333004	     -6.26011949	     -1.89878485
      0.66683333	      1.02545547	      8.29033085	     -0.21611058	     -0.75911239	      1.04863074	      0.28145571	     22.06510593	     -4.15339305	    -11.00761318	      1.65406355	      1.83884274	     -0.92054575	      0.19489877	    -22.89932230	     13.04969486	     -1.21927646	     -0.06563436	      1.54431608	      1.28565985	      0.32666787	      2.53505289	     -6.11062942	     -2.05892297
      0.67100000	      1.02346736	      8.25211948	     -0.10140899	     -0.75288698	      1.04851700	      0.28136965	     21.95499129	     -4.10102447	    -10.76394321	      1.23131418	      1.77359472	     -0.93542055	      0.20189183	    -23.01946325	     12.93644217	     -1.13036742	     -0.50391514	      1.48076118	      1.30421630	      0.33844677	      2.60356123	     -6.03641834	     -2.06975918
      0.67516667	      1.04297234	      8.20589620	     -0.00079632	     -0.74664097	      1.04844294	      0.28130288	     21.80557732	     -4.03874110	    -10.41490955	      0.82803256	      1.69747818	     -1.01346089	      0.21150724	    -23.15176072	     12.81673000	     -1.04393312	     -0.95194417	      1.32267454	      1.33043129	      0.35506517	      2.67760833	     -5.91204190	     -2.10240311
      0.67933333	      1.22416986	      8.04946681	     -0.15324584	     -0.74023227	      1.04846083	      0.28177357	     21.42909399	     -3.75149968	     -9.36868159	      0.57702696	      1.30044916	     -2.41289277	      0.28304252	    -23.46067191	     12.64806298	     -1.29416787	     -1.30245290	      0.67922723	      1.28192304	      0.52423504	      2.50359829	     -5.76716483	     -2.29073398
      0.68350000	      1.22113404	      7.99942546	     -0.01498303	     -0.73392818	      1.04843336	      0.28168502	     21.29046961	     -3.69992363	     -9.08963643	      0.17358966	      1.20446802	     -2.42578711	      0.29239348	    -23.53565937	     12.50365877	     -1.19852029	     -1.82087012	      0.60790137	      1.31486161	      0.54484234	      2.57247336	     -5.66828636	     -2.30095758
      0.68766667	      1.31591980	      7.85463264	     -0.07649623	     -0.72743822	      1.04844199	      0.28201651	     21.00334823	     -3.46495029	     -8.30246176	     -0.09051683	      0.58874799	     -3.46239893	      0.37331060	    -23.71616833	     12.31564351	     -1.40131525	     -2.26596844	      0.06917488	      1.49577732	      0.76380306	      2.57530144	     -5.47327514	     -2.42060501
      0.69183333	      1.30715181	      7.79127976	      0.06429347	     -0.72107296	      1.04846561	      0.28196385	     20.85617163	     -3.40292466	     -8.03446209	     -0.47175469	      0.49490345	     -3.46497727	      0.38324320	    -23.74887123	     12.14790606	     -1.34713310	     -2.84696373	     -0.02209307	      1.50927207	      0.78638535	      2.62331758	     -5.38798153	     -2.42977273
      0.69600000	      1.38173221	      7.60817828	      0.03757011	     -0.71446230	      1.04854461	      0.28236869	     20.55619858	     -3.13474579	     -7.27565944	     -0.67784897	     -0.25310738	     -4.56654641	      0.49406197	    -23.85741367	     11.89113503	     -1.69805426	     -3.38057965	     -0.60968129	      1.73834639	      1.10305672	      2.60522035	     -5.21961220	     -2.54547865
      0.70016667	      1.40343945	      7.55494751	      0.12777298	     -0.70818412	      1.04862872	      0.28234139	     20.40517982	     -3.08219133	     -7.03963453	     -1.07979073	     -0.37503244	     -4.55406419	      0.50383458	    -23.87944666	     11.75021151	     -1.62621920	     -4.01909553	     -0.73100769	      1.76720780	      1.12715270	      2.67326574	     -5.09679834	     -2.55996932
      0.70433333	      1.42775359	      7.38353029	      0.11956125	     -0.70153539	      1.04870288	      0.28254617	     20.19508717	     -2.86236122	     -6.58152162	     -1.35672831	     -1.20324423	     -5.02475197	      0.56596726	    -23.90964817	     11.51062686	     -1.84412736	     -4.57988243	     -1.50140668	      2.04458365	      1.31635641	      2.76510619	     -4.80677806	     -2.66014796
      0.70850000	      1.49046501	      7.22456963	      0.15664161	     -0.69502081	      1.04889387	      0.28283112	     19.94033681	     -2.66555240	     -6.13015096	     -1.63071096	     -1.85975617	     -5.73044498	      0.66191729	    -23.92358875	     11.24714903	     -2.14851158	     -5.26451614	     -1.98359841	      2.29293201	      1.60984624	      2.75780968	     -4.61438064	     -2.74052578
      0.71266667	      1.55610950	      7.06282301	      0.18122674	     -0.68854481	      1.04910580	      0.28326890	     19.66771664	     -2.45501240	     -5.49527053	     -1.87055882	     -2.46097673	     -6.77224102	      0.93213502	    -23.90941355	     10.96504460	     -2.46760750	     -6.01649912	     -2.23780973	      2.69065208	      2.41740525	      2.71683750	     -4.46502403	     -2.79155351
      0.71683333	      1.55315354	      6.92400528	      0.24867207	     -0.68201971	      1.04927290	      0.28332567	     19.54206932	     -2.32005794	     -5.44176072	     -2.26576519	     -2.95500233	     -6.72770029	      0.99472513	    -23.81263245	     10.72381154	     -2.64415257	     -6.77006772	     -2.84142983	      2.83370550	      2.60205040	      2.80987144	     -4.26801619	     -2.82031941
      0.72100000	      1.53314029	      6.75708194	      0.35939683	     -0.67544473	      1.04948469	      0.28342700	     19.40615784	     -2.16627442	     -5.32815309	     -2.62786528	     -3.36853106	     -6.78521537	      1.04078926	    -23.66659935	     10.42126196	     -2.84022749	     -7.59189544	     -3.34819079	      2.93587619	      2.74454772	      2.80617622	     -4.07909021	     -2.85913988
      0.72516667	      1.60924253	      6.56562999	      0.37457903	     -0.66888045	      1.04977996	      0.28370129	     19.16720380	     -1.95993330	     -5.01003609	     -2.95526379	     -4.09491942	     -7.31368649	      1.20645210	    -23.60802059	     10.11316659	     -3.11289903	     -8.40140358	     -4.07076680	      3.27414099	      3.28605762	      2.99778290	     -3.84434229	     -2.92974988
      0.72933333	      1.67115467	      6.48845925	      0.42946845	     -0.66274575	      1.05007113	      0.28376456	     19.03924583	     -1.91484326	     -4.96133750	     -3.46610399	     -4.23448710	     -7.31807011	      1.22070510	    -23.46332796	      9.92459567	     -3.22792553	     -9.36288471	     -4.28636004	      3.28051956	      3.33062288	      2.99431292	     -3.68723976	     -2.95015373
      0.73350000	      1.65880216	      6.22855898	      0.38150160	     -0.65602808	      1.05025566	      0.28432464	     18.91008916	     -1.59750894	     -4.63658017	     -3.82570312	     -5.19554300	     -8.29883428	      1.59476461	    -23.24125566	      9.54005779	     -3.80973211	    -10.26437653	     -5.26491738	      3.83941235	      4.63066746	      2.98545788	     -3.31335411	     -3.05224011
      0.73766667	      1.67737485	      6.04231849	      0.48806811	     -0.64958393	      1.05058003	      0.28443858	     18.79780044	     -1.44498248	     -4.80728142	     -4.32412878	     -5.40567911	     -8.20345908	      1.63410143	    -23.00468972	      9.19254540	     -4.07086806	    -11.30089897	     -5.77288405	      3.92038933	      4.76014509	      2.95787643	     -3.20417955	     -3.05029618
      0.74183333	      1.72690675	      5.85430998	      0.49538893	     -0.64316506	      1.05090231	      0.28451614	     18.68739806	     -1.28310123	     -4.95808997	     -4.86439947	     -5.82673564	     -8.13841111	      1.71123114	    -22.79387665	      8.89186637	     -4.30688406	    -12.29594494	     -6.71865993	      4.20146895	      5.03519281	      3.10498321	     -2.87582492	     -3.08446614
